# xmcd
#
# Track frame offsets: 
#        150
#        13638
#        26155
#        42580
#        61328
#        84459
#        101821
#        114725
#        136300
#        154194
#        172440
#        188664
#        211567
#        226326
#
# Disc length: 3367 seconds
#
# Revision: 0
# Processed by: cddbd v1.5.2PL0 Copyright (c) Steve Scherf et al.
# Submitted via: ExactAudioCopy v0.95b4
#
DISCID=bf0d250e
DTITLE=Three Studs and a Stone - Live at the Blue Boat
DYEAR=1999
DGENRE=Blues
TTITLE0=Sweet Cotton Baby
TTITLE1=That's Why I Go For The Blues
TTITLE2=Have You Ever Loved A Woman 
TTITLE3=Elvis Slept Here
TTITLE4=All Need Is The Blues
TTITLE5=Dangerous Woman
TTITLE6=Walking Through The Park
TTITLE7=Satisfy Me
TTITLE8=Hang Over"The Last Beer"Blues
TTITLE9=I Aint Lying To You Baby
TTITLE10=Crossroads
TTITLE11=Delta Moon
TTITLE12=I Cry For You
TTITLE13=Someday After A While
EXTD=
EXTT0=
EXTT1=
EXTT2=
EXTT3=
EXTT4=
EXTT5=
EXTT6=
EXTT7=
EXTT8=
EXTT9=
EXTT10=
EXTT11=
EXTT12=
EXTT13=
PLAYORDER=
